<?xml version="1.0" encoding="UTF-8" standalone="no"?>
<svg
   width="93"
   height="93"
   viewBox="0 0 93 93"
   version="1.1"
   id="svg14"
   sodipodi:docname="SoloLearn_logo.svg"
   inkscape:version="1.3.2 (091e20e, 2023-11-25, custom)"
   xmlns:inkscape="http://www.inkscape.org/namespaces/inkscape"
   xmlns:sodipodi="http://sodipodi.sourceforge.net/DTD/sodipodi-0.dtd"
   xmlns="http://www.w3.org/2000/svg"
   xmlns:svg="http://www.w3.org/2000/svg">
  <defs
     id="defs14" />
  <sodipodi:namedview
     id="namedview14"
     pagecolor="#ffffff"
     bordercolor="#000000"
     borderopacity="0.25"
     inkscape:showpageshadow="2"
     inkscape:pageopacity="0.0"
     inkscape:pagecheckerboard="0"
     inkscape:deskcolor="#d1d1d1"
     inkscape:zoom="1.5235174"
     inkscape:cx="204.46107"
     inkscape:cy="45.618121"
     inkscape:window-width="1920"
     inkscape:window-height="1001"
     inkscape:window-x="-9"
     inkscape:window-y="-9"
     inkscape:window-maximized="1"
     inkscape:current-layer="g13" />
  <g
     fill="none"
     id="g14">
    <g
       id="g13">
      <path
         d="m 62.598,20.857 c 9.997,0 18.979,4.358 25.07,11.323 2.07,2.335 5.936,0.74 5.624,-2.373 A 34.77,34.77 0 0 0 92.12,23.659 C 89.035,12.685 80.21,4.125 69.16,1.245 46.94,-4.592 26.946,11.985 26.946,33.192 c 0,1.362 0.078,2.724 0.235,4.047 0.39,3.074 4.53,3.852 6.014,1.129 A 33.349,33.349 0 0 1 62.599,20.857 Z"
         fill="#ffa30f"
         id="path10"
         style="fill:#000000" />
      <path
         d="M 20.933,30.625 A 32.973,32.973 0 0 1 32.296,5.643 C 34.64,3.581 33.038,-0.27 29.914,0.04 27.844,0.235 25.774,0.624 23.705,1.169 12.693,4.282 4.102,13.037 1.212,24.049 c -5.818,22.18 10.817,42.103 32.1,42.103 1.366,0 2.733,-0.078 4.06,-0.234 3.086,-0.389 3.867,-4.513 1.133,-5.992 C 28.04,54.322 20.932,43.31 20.932,30.626 Z"
         fill="#149ef2"
         id="path11"
         style="fill:#000000" />
      <path
         d="m 30.734,72.143 c -9.997,0 -18.979,-4.358 -25.07,-11.323 -2.07,-2.335 -5.936,-0.74 -5.624,2.373 a 34.763,34.763 0 0 0 1.172,6.148 c 3.085,10.974 11.91,19.534 22.961,22.414 22.259,5.798 42.253,-10.779 42.253,-31.986 0,-1.362 -0.079,-2.724 -0.235,-4.047 -0.39,-3.074 -4.53,-3.852 -6.014,-1.128 -5.662,10.467 -16.713,17.55 -29.443,17.55 z"
         fill="#f20057"
         id="path12"
         style="fill:#000000" />
      <path
         d="M 72.4,62.376 A 32.973,32.973 0 0 1 61.036,87.358 c -2.343,2.062 -0.742,5.914 2.383,5.603 2.03,-0.194 4.1,-0.584 6.17,-1.167 C 80.6,88.72 89.191,79.926 92.08,68.914 97.9,46.733 81.264,26.81 59.982,26.81 a 35.03,35.03 0 0 0 -4.061,0.233 c -3.085,0.39 -3.866,4.514 -1.133,5.992 C 65.293,38.68 72.4,49.691 72.4,62.376 Z"
         fill="#8252de"
         id="path13"
         style="fill:#000000" />
    </g>
  </g>
</svg>
